<mxfile host="app.diagrams.net" modified="2022-12-02T15:22:30.623Z" agent="5.0 (Macintosh)" etag="5H7EWaJHABS2XwAkxHFf" version="16.5.2" type="github">
  <diagram id="RzE1xxKOCAMfOHsTt04t" name="Page-1">
    <mxGraphModel dx="1661" dy="1056" grid="1" gridSize="10" guides="1" tooltips="1" connect="1" arrows="1" fold="1" page="0" pageScale="1" pageWidth="850" pageHeight="1100" math="0" shadow="0">
      <root>
        <mxCell id="0" />
        <mxCell id="1" parent="0" />
        <mxCell id="65GqqxQCFxLWCUhT1o5p-29" value="" style="edgeStyle=orthogonalEdgeStyle;rounded=0;orthogonalLoop=1;jettySize=auto;html=1;fontSize=18;entryX=0.5;entryY=0;entryDx=0;entryDy=0;" parent="1" source="65GqqxQCFxLWCUhT1o5p-1" target="65GqqxQCFxLWCUhT1o5p-3" edge="1">
          <mxGeometry relative="1" as="geometry" />
        </mxCell>
        <mxCell id="65GqqxQCFxLWCUhT1o5p-1" value="&lt;div style=&quot;font-size: 18px&quot;&gt;&lt;font style=&quot;font-size: 18px&quot;&gt;INPUT&lt;/font&gt;&lt;/div&gt;" style="rounded=0;whiteSpace=wrap;html=1;rotation=-90;" parent="1" vertex="1">
          <mxGeometry x="-20" y="340" width="160" height="40" as="geometry" />
        </mxCell>
        <mxCell id="65GqqxQCFxLWCUhT1o5p-3" value="&lt;div&gt;&lt;font style=&quot;font-size: 18px&quot;&gt;CONV 1-1&lt;/font&gt;&lt;/div&gt;" style="rounded=0;whiteSpace=wrap;html=1;rotation=-90;align=center;fillColor=#ffe6cc;strokeColor=#856000;" parent="1" vertex="1">
          <mxGeometry x="60" y="340" width="160" height="40" as="geometry" />
        </mxCell>
        <mxCell id="65GqqxQCFxLWCUhT1o5p-4" value="&lt;div&gt;&lt;font style=&quot;font-size: 18px&quot;&gt;CONV 1-2&lt;/font&gt;&lt;/div&gt;" style="rounded=0;whiteSpace=wrap;html=1;rotation=-90;align=center;fillColor=#ffe6cc;strokeColor=#d79b00;" parent="1" vertex="1">
          <mxGeometry x="100" y="340" width="160" height="40" as="geometry" />
        </mxCell>
        <mxCell id="65GqqxQCFxLWCUhT1o5p-32" value="" style="edgeStyle=orthogonalEdgeStyle;rounded=0;orthogonalLoop=1;jettySize=auto;html=1;fontSize=18;entryX=0.5;entryY=0;entryDx=0;entryDy=0;" parent="1" source="65GqqxQCFxLWCUhT1o5p-5" target="65GqqxQCFxLWCUhT1o5p-6" edge="1">
          <mxGeometry relative="1" as="geometry" />
        </mxCell>
        <mxCell id="65GqqxQCFxLWCUhT1o5p-5" value="&lt;div style=&quot;font-size: 18px&quot;&gt;&lt;font style=&quot;font-size: 18px&quot;&gt;MAX-POOLING 1&lt;br&gt;&lt;/font&gt;&lt;/div&gt;&lt;font style=&quot;font-size: 18px&quot;&gt;&lt;/font&gt;" style="rounded=0;whiteSpace=wrap;html=1;rotation=-90;align=center;fillColor=#d5e8d4;strokeColor=#82b366;" parent="1" vertex="1">
          <mxGeometry x="140" y="340" width="160" height="40" as="geometry" />
        </mxCell>
        <mxCell id="65GqqxQCFxLWCUhT1o5p-6" value="&lt;div&gt;&lt;font style=&quot;font-size: 18px&quot;&gt;CONV 2-1&lt;/font&gt;&lt;/div&gt;" style="rounded=0;whiteSpace=wrap;html=1;rotation=-90;align=center;fillColor=#ffe6cc;strokeColor=#856000;" parent="1" vertex="1">
          <mxGeometry x="220" y="340" width="160" height="40" as="geometry" />
        </mxCell>
        <mxCell id="65GqqxQCFxLWCUhT1o5p-7" value="&lt;div&gt;&lt;font style=&quot;font-size: 18px&quot;&gt;CONV 2-2&lt;/font&gt;&lt;/div&gt;" style="rounded=0;whiteSpace=wrap;html=1;rotation=-90;align=center;fillColor=#ffe6cc;strokeColor=#d79b00;" parent="1" vertex="1">
          <mxGeometry x="260" y="340" width="160" height="40" as="geometry" />
        </mxCell>
        <mxCell id="65GqqxQCFxLWCUhT1o5p-33" value="" style="edgeStyle=orthogonalEdgeStyle;rounded=0;orthogonalLoop=1;jettySize=auto;html=1;fontSize=18;entryX=0.5;entryY=0;entryDx=0;entryDy=0;" parent="1" source="65GqqxQCFxLWCUhT1o5p-8" target="65GqqxQCFxLWCUhT1o5p-10" edge="1">
          <mxGeometry relative="1" as="geometry">
            <mxPoint x="450" y="360" as="targetPoint" />
          </mxGeometry>
        </mxCell>
        <mxCell id="65GqqxQCFxLWCUhT1o5p-8" value="&lt;div style=&quot;font-size: 18px&quot;&gt;&lt;font style=&quot;font-size: 18px&quot;&gt;MAX-POOLING 2&lt;br&gt;&lt;/font&gt;&lt;/div&gt;" style="rounded=0;whiteSpace=wrap;html=1;rotation=-90;align=center;fillColor=#d5e8d4;strokeColor=#82b366;" parent="1" vertex="1">
          <mxGeometry x="300" y="340" width="160" height="40" as="geometry" />
        </mxCell>
        <mxCell id="65GqqxQCFxLWCUhT1o5p-10" value="&lt;div&gt;&lt;font style=&quot;font-size: 18px&quot;&gt;CONV 3-1&lt;/font&gt;&lt;/div&gt;" style="rounded=0;whiteSpace=wrap;html=1;rotation=-90;align=center;fillColor=#ffe6cc;strokeColor=#856000;" parent="1" vertex="1">
          <mxGeometry x="380" y="340" width="160" height="40" as="geometry" />
        </mxCell>
        <mxCell id="65GqqxQCFxLWCUhT1o5p-11" value="&lt;div&gt;&lt;font style=&quot;font-size: 18px&quot;&gt;CONV 3-3&lt;/font&gt;&lt;/div&gt;" style="rounded=0;whiteSpace=wrap;html=1;rotation=-90;align=center;fillColor=#ffe6cc;strokeColor=#d79b00;" parent="1" vertex="1">
          <mxGeometry x="460" y="340" width="160" height="40" as="geometry" />
        </mxCell>
        <mxCell id="65GqqxQCFxLWCUhT1o5p-12" value="&lt;div&gt;&lt;font style=&quot;font-size: 18px&quot;&gt;CONV 3-2&lt;/font&gt;&lt;/div&gt;" style="rounded=0;whiteSpace=wrap;html=1;rotation=-90;align=center;fillColor=#ffe6cc;strokeColor=#d79b00;" parent="1" vertex="1">
          <mxGeometry x="420" y="340" width="160" height="40" as="geometry" />
        </mxCell>
        <mxCell id="65GqqxQCFxLWCUhT1o5p-34" value="" style="edgeStyle=orthogonalEdgeStyle;rounded=0;orthogonalLoop=1;jettySize=auto;html=1;fontSize=18;entryX=0.5;entryY=0;entryDx=0;entryDy=0;" parent="1" source="65GqqxQCFxLWCUhT1o5p-13" target="65GqqxQCFxLWCUhT1o5p-14" edge="1">
          <mxGeometry relative="1" as="geometry" />
        </mxCell>
        <mxCell id="65GqqxQCFxLWCUhT1o5p-13" value="&lt;div style=&quot;font-size: 18px&quot;&gt;&lt;font style=&quot;font-size: 18px&quot;&gt;MAX-POOLING 3&lt;br&gt;&lt;/font&gt;&lt;/div&gt;" style="rounded=0;whiteSpace=wrap;html=1;rotation=-90;align=center;fillColor=#d5e8d4;strokeColor=#82b366;" parent="1" vertex="1">
          <mxGeometry x="500" y="340" width="160" height="40" as="geometry" />
        </mxCell>
        <mxCell id="65GqqxQCFxLWCUhT1o5p-14" value="&lt;div&gt;&lt;font style=&quot;font-size: 18px&quot;&gt;CONV 4-1&lt;/font&gt;&lt;/div&gt;" style="rounded=0;whiteSpace=wrap;html=1;rotation=-90;align=center;fillColor=#ffe6cc;strokeColor=#856000;" parent="1" vertex="1">
          <mxGeometry x="580" y="340" width="160" height="40" as="geometry" />
        </mxCell>
        <mxCell id="65GqqxQCFxLWCUhT1o5p-15" value="&lt;div&gt;&lt;font style=&quot;font-size: 18px&quot;&gt;CONV 4-3&lt;/font&gt;&lt;/div&gt;" style="rounded=0;whiteSpace=wrap;html=1;rotation=-90;align=center;fillColor=#ffe6cc;strokeColor=#d79b00;" parent="1" vertex="1">
          <mxGeometry x="660" y="340" width="160" height="40" as="geometry" />
        </mxCell>
        <mxCell id="65GqqxQCFxLWCUhT1o5p-16" value="&lt;div&gt;&lt;font style=&quot;font-size: 18px&quot;&gt;CONV 4-2&lt;/font&gt;&lt;/div&gt;" style="rounded=0;whiteSpace=wrap;html=1;rotation=-90;align=center;fillColor=#ffe6cc;strokeColor=#d79b00;" parent="1" vertex="1">
          <mxGeometry x="620" y="340" width="160" height="40" as="geometry" />
        </mxCell>
        <mxCell id="65GqqxQCFxLWCUhT1o5p-35" value="" style="edgeStyle=orthogonalEdgeStyle;rounded=0;orthogonalLoop=1;jettySize=auto;html=1;fontSize=18;entryX=0.5;entryY=0;entryDx=0;entryDy=0;" parent="1" source="65GqqxQCFxLWCUhT1o5p-17" target="65GqqxQCFxLWCUhT1o5p-18" edge="1">
          <mxGeometry relative="1" as="geometry" />
        </mxCell>
        <mxCell id="65GqqxQCFxLWCUhT1o5p-17" value="&lt;div style=&quot;font-size: 18px&quot;&gt;&lt;font style=&quot;font-size: 18px&quot;&gt;MAX-POOLING 4&lt;/font&gt;&lt;/div&gt;" style="rounded=0;whiteSpace=wrap;html=1;rotation=-90;align=center;fillColor=#d5e8d4;strokeColor=#82b366;" parent="1" vertex="1">
          <mxGeometry x="700" y="340" width="160" height="40" as="geometry" />
        </mxCell>
        <mxCell id="65GqqxQCFxLWCUhT1o5p-18" value="&lt;div&gt;&lt;font style=&quot;font-size: 18px&quot;&gt;CONV 5-1&lt;/font&gt;&lt;/div&gt;" style="rounded=0;whiteSpace=wrap;html=1;rotation=-90;align=center;fillColor=#ffe6cc;strokeColor=#856000;" parent="1" vertex="1">
          <mxGeometry x="780" y="340" width="160" height="40" as="geometry" />
        </mxCell>
        <mxCell id="65GqqxQCFxLWCUhT1o5p-19" value="&lt;div&gt;&lt;font style=&quot;font-size: 18px&quot;&gt;CONV 5-3&lt;/font&gt;&lt;/div&gt;" style="rounded=0;whiteSpace=wrap;html=1;rotation=-90;align=center;fillColor=#ffe6cc;strokeColor=#d79b00;" parent="1" vertex="1">
          <mxGeometry x="860" y="340" width="160" height="40" as="geometry" />
        </mxCell>
        <mxCell id="65GqqxQCFxLWCUhT1o5p-20" value="&lt;div&gt;&lt;font style=&quot;font-size: 18px&quot;&gt;CONV 5-2&lt;/font&gt;&lt;/div&gt;" style="rounded=0;whiteSpace=wrap;html=1;rotation=-90;align=center;fillColor=#ffe6cc;strokeColor=#d79b00;" parent="1" vertex="1">
          <mxGeometry x="820" y="340" width="160" height="40" as="geometry" />
        </mxCell>
        <mxCell id="65GqqxQCFxLWCUhT1o5p-36" value="" style="edgeStyle=orthogonalEdgeStyle;rounded=0;orthogonalLoop=1;jettySize=auto;html=1;fontSize=18;entryX=0.5;entryY=0;entryDx=0;entryDy=0;" parent="1" source="65GqqxQCFxLWCUhT1o5p-21" target="65GqqxQCFxLWCUhT1o5p-23" edge="1">
          <mxGeometry relative="1" as="geometry" />
        </mxCell>
        <mxCell id="65GqqxQCFxLWCUhT1o5p-21" value="&lt;div style=&quot;font-size: 18px&quot;&gt;&lt;font style=&quot;font-size: 18px&quot;&gt;MAX-POOLING 5&lt;br&gt;&lt;/font&gt;&lt;/div&gt;" style="rounded=0;whiteSpace=wrap;html=1;rotation=-90;align=center;fillColor=#d5e8d4;strokeColor=#82b366;" parent="1" vertex="1">
          <mxGeometry x="900" y="340" width="160" height="40" as="geometry" />
        </mxCell>
        <mxCell id="65GqqxQCFxLWCUhT1o5p-23" value="&lt;div style=&quot;font-size: 18px&quot;&gt;&lt;font style=&quot;font-size: 18px&quot;&gt;FC 1&lt;br&gt;&lt;/font&gt;&lt;/div&gt;" style="rounded=0;whiteSpace=wrap;html=1;rotation=-90;fillColor=#fff2cc;strokeColor=#d6b656;" parent="1" vertex="1">
          <mxGeometry x="980" y="340" width="160" height="40" as="geometry" />
        </mxCell>
        <mxCell id="65GqqxQCFxLWCUhT1o5p-24" value="&lt;div style=&quot;font-size: 16px&quot;&gt;&lt;font style=&quot;font-size: 16px&quot;&gt;DROPOUT (0.5)&lt;/font&gt;&lt;/div&gt;" style="rounded=0;whiteSpace=wrap;html=1;rotation=-90;fillColor=#dae8fc;strokeColor=#6c8ebf;" parent="1" vertex="1">
          <mxGeometry x="1010" y="230" width="120" height="20" as="geometry" />
        </mxCell>
        <mxCell id="65GqqxQCFxLWCUhT1o5p-25" value="&lt;font style=&quot;font-size: 16px&quot;&gt;FLATTEN&lt;/font&gt;" style="rounded=0;whiteSpace=wrap;html=1;rotation=-90;fillColor=#dae8fc;strokeColor=#6c8ebf;" parent="1" vertex="1">
          <mxGeometry x="970" y="230" width="120" height="20" as="geometry" />
        </mxCell>
        <mxCell id="65GqqxQCFxLWCUhT1o5p-26" value="&lt;div style=&quot;font-size: 18px&quot;&gt;&lt;font style=&quot;font-size: 18px&quot;&gt;FC 2&lt;br&gt;&lt;/font&gt;&lt;/div&gt;" style="rounded=0;whiteSpace=wrap;html=1;rotation=-90;fillColor=#fff2cc;strokeColor=#d6b656;" parent="1" vertex="1">
          <mxGeometry x="1020" y="340" width="160" height="40" as="geometry" />
        </mxCell>
        <mxCell id="65GqqxQCFxLWCUhT1o5p-37" style="edgeStyle=orthogonalEdgeStyle;rounded=0;orthogonalLoop=1;jettySize=auto;html=1;fontSize=18;entryX=0.5;entryY=0;entryDx=0;entryDy=0;" parent="1" source="65GqqxQCFxLWCUhT1o5p-27" target="65GqqxQCFxLWCUhT1o5p-28" edge="1">
          <mxGeometry relative="1" as="geometry">
            <mxPoint x="1180" y="370" as="targetPoint" />
          </mxGeometry>
        </mxCell>
        <mxCell id="65GqqxQCFxLWCUhT1o5p-27" value="&lt;div style=&quot;font-size: 18px&quot;&gt;&lt;font style=&quot;font-size: 18px&quot;&gt;FC 3&lt;br&gt;&lt;/font&gt;&lt;/div&gt;&amp;nbsp;(SOFTMAX, 10 CLASSES)" style="rounded=0;whiteSpace=wrap;html=1;rotation=-90;fillColor=#fff2cc;strokeColor=#d6b656;" parent="1" vertex="1">
          <mxGeometry x="1060" y="340" width="160" height="40" as="geometry" />
        </mxCell>
        <mxCell id="65GqqxQCFxLWCUhT1o5p-28" value="&lt;font style=&quot;font-size: 18px&quot;&gt;OUTPUT&lt;/font&gt;" style="rounded=0;whiteSpace=wrap;html=1;rotation=-90;" parent="1" vertex="1">
          <mxGeometry x="1140" y="340" width="160" height="40" as="geometry" />
        </mxCell>
        <mxCell id="IuOCv12zmpkd84v63Iwv-1" value="&lt;font style=&quot;font-size: 24px&quot;&gt;CONV-1&lt;/font&gt;" style="rounded=1;whiteSpace=wrap;html=1;" parent="1" vertex="1">
          <mxGeometry x="120" y="200" width="120" height="40" as="geometry" />
        </mxCell>
        <mxCell id="IuOCv12zmpkd84v63Iwv-3" value="&lt;font style=&quot;font-size: 24px&quot;&gt;CONV-2&lt;/font&gt;" style="rounded=1;whiteSpace=wrap;html=1;" parent="1" vertex="1">
          <mxGeometry x="281" y="200" width="120" height="40" as="geometry" />
        </mxCell>
        <mxCell id="IuOCv12zmpkd84v63Iwv-4" value="&lt;font style=&quot;font-size: 24px&quot;&gt;CONV-3&lt;/font&gt;" style="rounded=1;whiteSpace=wrap;html=1;" parent="1" vertex="1">
          <mxGeometry x="440" y="200" width="160" height="40" as="geometry" />
        </mxCell>
        <mxCell id="IuOCv12zmpkd84v63Iwv-5" value="&lt;font style=&quot;font-size: 24px&quot;&gt;CONV-4&lt;/font&gt;" style="rounded=1;whiteSpace=wrap;html=1;" parent="1" vertex="1">
          <mxGeometry x="640" y="200" width="160" height="40" as="geometry" />
        </mxCell>
        <mxCell id="IuOCv12zmpkd84v63Iwv-6" value="&lt;font style=&quot;font-size: 24px&quot;&gt;CONV-5&lt;/font&gt;" style="rounded=1;whiteSpace=wrap;html=1;" parent="1" vertex="1">
          <mxGeometry x="840" y="200" width="160" height="40" as="geometry" />
        </mxCell>
      </root>
    </mxGraphModel>
  </diagram>
</mxfile>
